<svg width="31" height="31" viewBox="0 0 31 31" fill="none" xmlns="http://www.w3.org/2000/svg">
<path d="M15.6 22.27C19.4522 22.27 22.575 19.1472 22.575 15.295C22.575 11.4428 19.4522 8.32001 15.6 8.32001C11.7479 8.32001 8.625 11.4428 8.625 15.295C8.625 19.1472 11.7479 22.27 15.6 22.27Z" stroke="#fff" stroke-miterlimit="10" stroke-linecap="round" stroke-linejoin="round"/>
<path d="M12.7949 18.115L18.405 12.49" stroke="#fff" stroke-miterlimit="10" stroke-linecap="round" stroke-linejoin="round"/>
<path d="M15.8851 18.505L18.81 15.58" stroke="#fff" stroke-miterlimit="10" stroke-linecap="round" stroke-linejoin="round"/>
<path d="M12.39 15.01L15.3151 12.085" stroke="#fff" stroke-miterlimit="10" stroke-linecap="round" stroke-linejoin="round"/>
<path d="M29.0999 16.795C29.9284 16.795 30.5999 16.1234 30.5999 15.295C30.5999 14.4665 29.9284 13.795 29.0999 13.795C28.2715 13.795 27.5999 14.4665 27.5999 15.295C27.5999 16.1234 28.2715 16.795 29.0999 16.795Z" fill="#fff"/>
<path d="M2.10001 16.795C2.92843 16.795 3.60001 16.1234 3.60001 15.295C3.60001 14.4665 2.92843 13.795 2.10001 13.795C1.27158 13.795 0.600006 14.4665 0.600006 15.295C0.600006 16.1234 1.27158 16.795 2.10001 16.795Z" fill="#fff"/>
<path d="M15.6 3.295C16.4284 3.295 17.1 2.62342 17.1 1.795C17.1 0.966571 16.4284 0.294998 15.6 0.294998C14.7715 0.294998 14.1 0.966571 14.1 1.795C14.1 2.62342 14.7715 3.295 15.6 3.295Z" fill="#fff"/>
<path d="M15.6 30.295C16.4284 30.295 17.1 29.6234 17.1 28.795C17.1 27.9666 16.4284 27.295 15.6 27.295C14.7715 27.295 14.1 27.9666 14.1 28.795C14.1 29.6234 14.7715 30.295 15.6 30.295Z" fill="#fff"/>
<path d="M24.39 7.25499C24.8043 7.25499 25.14 6.9192 25.14 6.50499C25.14 6.09078 24.8043 5.75499 24.39 5.75499C23.9758 5.75499 23.64 6.09078 23.64 6.50499C23.64 6.9192 23.9758 7.25499 24.39 7.25499Z" fill="#fff"/>
<path d="M6.79501 24.85C7.20923 24.85 7.54501 24.5142 7.54501 24.1C7.54501 23.6858 7.20923 23.35 6.79501 23.35C6.3808 23.35 6.04501 23.6858 6.04501 24.1C6.04501 24.5142 6.3808 24.85 6.79501 24.85Z" fill="#fff"/>
<path d="M6.79501 7.25499C7.20923 7.25499 7.54501 6.9192 7.54501 6.50499C7.54501 6.09078 7.20923 5.75499 6.79501 5.75499C6.3808 5.75499 6.04501 6.09078 6.04501 6.50499C6.04501 6.9192 6.3808 7.25499 6.79501 7.25499Z" fill="#fff"/>
<path d="M24.39 24.85C24.8043 24.85 25.14 24.5142 25.14 24.1C25.14 23.6858 24.8043 23.35 24.39 23.35C23.9758 23.35 23.64 23.6858 23.64 24.1C23.64 24.5142 23.9758 24.85 24.39 24.85Z" fill="#fff"/>
</svg>
